<?xml version="1.0" encoding="UTF-8"?>
<svg enable-background="new 0 0 71 54.1" version="1.0" viewBox="0 0 71 54.1" xml:space="preserve" xmlns="http://www.w3.org/2000/svg">
<path d="m60.1 4.5c-4.5-2.1-9.4-3.6-14.4-4.5-0.1 0-0.2 0-0.2 0.1-0.6 1.1-1.3 2.6-1.8 3.7-5.5-0.8-11-0.8-16.3 0-0.5-1.2-1.2-2.6-1.8-3.7-0.1-0.1-0.2-0.1-0.3-0.1-5.1 0.9-9.9 2.4-14.5 4.5 0 0-0.1 0-0.1 0.1-9.1 13.7-11.6 27.1-10.4 40.4 0 0.1 0 0.1 0.1 0.2 6.1 4.5 12 7.2 17.7 9 0.1 0 0.2 0 0.2-0.1 1.4-1.9 2.6-3.8 3.6-5.9 0.1-0.1 0-0.3-0.1-0.3-1.9-0.7-3.8-1.6-5.5-2.6-0.1-0.1-0.2-0.3 0-0.4 0.4-0.3 0.7-0.6 1.1-0.9 0.1-0.1 0.2-0.1 0.2 0 11.6 5.3 24.2 5.3 35.7 0h0.2c0.4 0.3 0.7 0.6 1.1 0.9 0.1 0.1 0.1 0.3 0 0.4-1.8 1-3.6 1.9-5.5 2.6-0.1 0-0.2 0.2-0.1 0.3 1.1 2.1 2.3 4 3.6 5.9 0.1 0.1 0.2 0.1 0.2 0.1 5.8-1.8 11.7-4.5 17.8-9 0.1 0 0.1-0.1 0.1-0.2 1.5-15.3-2.5-28.6-10.6-40.5 0.1 0 0 0 0 0zm-36.4 32.4c-3.5 0-6.4-3.2-6.4-7.2s2.8-7.2 6.4-7.2 6.4 3.2 6.4 7.2-2.8 7.2-6.4 7.2zm23.6 0c-3.5 0-6.4-3.2-6.4-7.2s2.8-7.2 6.4-7.2 6.4 3.2 6.4 7.2-2.8 7.2-6.4 7.2z" fill="#fff"/>
</svg>
