<svg width="24" height="20" viewBox="0 0 24 20" fill="none" xmlns="http://www.w3.org/2000/svg">
<path d="M16.0014 13.9995L12.0014 9.9995M12.0014 9.9995L8.00143 13.9995M12.0014 9.9995L12.0014 18.9995M20.3914 16.3895C21.3668 15.8578 22.1373 15.0164 22.5813 13.9981C23.0253 12.9799 23.1176 11.8427 22.8436 10.7662C22.5696 9.68964 21.9449 8.73501 21.0681 8.05294C20.1913 7.37088 19.1123 7.00023 18.0014 6.9995H16.7414C16.4387 5.82874 15.8746 4.74183 15.0914 3.82049C14.3082 2.89915 13.3263 2.16735 12.2195 1.6801C11.1128 1.19286 9.90998 0.962854 8.70154 1.00738C7.49311 1.0519 6.31049 1.3698 5.2426 1.93716C4.17471 2.50453 3.24934 3.3066 2.53605 4.28308C1.82276 5.25956 1.34012 6.38503 1.1244 7.57489C0.908695 8.76475 0.96553 9.98803 1.29064 11.1528C1.61575 12.3175 2.20067 13.3934 3.00143 14.2995" stroke="#767676" stroke-width="2" stroke-linecap="round" stroke-linejoin="round"/>
</svg>
